<svg width="41" height="40" viewBox="0 0 41 40" fill="none" xmlns="http://www.w3.org/2000/svg">
<rect x="1" y="1" width="38.1474" height="38" rx="11" fill="#299EFF" fill-opacity="0.15"/>
<path d="M20.0737 31C26.1826 31 31.1474 26.082 31.1474 20C31.1474 13.918 26.1826 9 20.0737 9C13.9648 9 9 13.918 9 20C9 26.082 13.9648 31 20.0737 31Z" fill="#299EFF" fill-opacity="0.15" stroke="#299EFF" stroke-width="2"/>
<path d="M19.7768 14.5C13.1713 14.5 12 17.1394 12 20.2089C12 25.3546 17.3893 25.5 19.9087 25.5C22.7935 25.5 28 25.5 28 19.7911C28 15.1901 24.3753 14.5 19.7768 14.5Z" fill="#DBEDFB" stroke="#299EFF" stroke-width="2"/>
<rect x="16" y="18" width="3" height="4" rx="1.5" fill="#299EFF"/>
<rect x="21" y="18" width="3" height="4" rx="1.5" fill="#299EFF"/>
<rect x="1" y="1" width="38.1474" height="38" rx="11" stroke="#299EFF" stroke-width="2"/>
</svg>
