<svg width="40" height="40" viewBox="0 0 40 40" fill="none" xmlns="http://www.w3.org/2000/svg">
<rect x="1" y="1" width="38" height="38" rx="11" fill="#AC7AFF" fill-opacity="0.15"/>
<path d="M17.5 29H16C14.3431 29 13 27.6569 13 26V14C13 12.3431 14.3431 11 16 11H24C25.6569 11 27 12.3431 27 14V18M27 27.9495C27.6186 27.3182 28 26.4537 28 25.5C28 23.567 26.433 22 24.5 22C22.567 22 21 23.567 21 25.5C21 27.433 22.567 29 24.5 29C25.4793 29 26.3647 28.5978 27 27.9495ZM27 27.9495L28.5 29.5M17 15H23M17 19H20" stroke="#AC7AFF" stroke-width="2" stroke-linecap="round" stroke-linejoin="round"/>
<rect x="1" y="1" width="38" height="38" rx="11" stroke="#AC7AFF" stroke-width="2"/>
</svg>
