<svg width="90" height="91" viewBox="0 0 90 91" fill="none" xmlns="http://www.w3.org/2000/svg">
<rect x="2" y="2.72681" width="86" height="86" rx="22" fill="#00CCB5" fill-opacity="0.15"/>
<path fill-rule="evenodd" clip-rule="evenodd" d="M47.1717 34.3011C48.4603 34.3011 49.505 35.3458 49.505 36.6345C49.505 42.0209 50.6969 45.3668 52.7348 47.4047C54.7727 49.4426 58.1185 50.6345 63.505 50.6345C64.7937 50.6345 65.8383 51.6792 65.8383 52.9678C65.8383 54.2565 64.7937 55.3012 63.505 55.3012C58.1185 55.3012 54.7727 56.493 52.7348 58.5309C50.6969 60.5688 49.505 63.9147 49.505 69.3012C49.505 70.5898 48.4603 71.6345 47.1717 71.6345C45.883 71.6345 44.8383 70.5898 44.8383 69.3012C44.8383 63.9147 43.6464 60.5688 41.6086 58.5309C39.5707 56.493 36.2248 55.3012 30.8383 55.3012C29.5497 55.3012 28.505 54.2565 28.505 52.9678C28.505 51.6792 29.5497 50.6345 30.8383 50.6345C36.2248 50.6345 39.5707 49.4426 41.6086 47.4047C43.6464 45.3668 44.8383 42.0209 44.8383 36.6345C44.8383 35.3458 45.883 34.3011 47.1717 34.3011ZM47.1717 47.6791C46.5558 48.7958 45.806 49.8069 44.9084 50.7045C44.0108 51.6022 42.9997 52.352 41.883 52.9678C42.9997 53.5837 44.0108 54.3335 44.9084 55.2311C45.806 56.1287 46.5558 57.1398 47.1717 58.2565C47.7875 57.1398 48.5373 56.1287 49.435 55.2311C50.3326 54.3335 51.3437 53.5837 52.4604 52.9678C51.3437 52.352 50.3326 51.6022 49.435 50.7045C48.5373 49.8069 47.7875 48.7958 47.1717 47.6791Z" fill="#00CCB5"/>
<path d="M30.8383 30.8011C30.8383 30.1568 30.316 29.6345 29.6717 29.6345C29.0273 29.6345 28.505 30.1568 28.505 30.8011C28.505 33.0893 27.9982 34.4706 27.1696 35.2991C26.3411 36.1277 24.9598 36.6345 22.6717 36.6345C22.0273 36.6345 21.505 37.1568 21.505 37.8011C21.505 38.4455 22.0273 38.9678 22.6717 38.9678C24.9598 38.9678 26.3411 39.4746 27.1696 40.3032C27.9982 41.1317 28.505 42.513 28.505 44.8011C28.505 45.4455 29.0273 45.9678 29.6717 45.9678C30.316 45.9678 30.8383 45.4455 30.8383 44.8011C30.8383 42.513 31.3452 41.1317 32.1737 40.3032C33.0023 39.4746 34.3835 38.9678 36.6717 38.9678C37.316 38.9678 37.8383 38.4455 37.8383 37.8011C37.8383 37.1568 37.316 36.6345 36.6717 36.6345C34.3835 36.6345 33.0023 36.1277 32.1737 35.2991C31.3452 34.4706 30.8383 33.0893 30.8383 30.8011Z" fill="#00CCB5"/>
<path d="M42.505 21.4678C42.505 20.8235 41.9827 20.3011 41.3383 20.3011C40.694 20.3011 40.1717 20.8235 40.1717 21.4678C40.1717 22.9458 39.8431 23.7437 39.3953 24.1915C38.9476 24.6392 38.1496 24.9678 36.6717 24.9678C36.0273 24.9678 35.505 25.4901 35.505 26.1345C35.505 26.7788 36.0273 27.3011 36.6717 27.3011C38.1496 27.3011 38.9476 27.6297 39.3953 28.0775C39.8431 28.5253 40.1717 29.3232 40.1717 30.8011C40.1717 31.4455 40.694 31.9678 41.3383 31.9678C41.9827 31.9678 42.505 31.4455 42.505 30.8011C42.505 29.3232 42.8336 28.5253 43.2814 28.0775C43.7291 27.6297 44.5271 27.3011 46.005 27.3011C46.6493 27.3011 47.1717 26.7788 47.1717 26.1345C47.1717 25.4901 46.6493 24.9678 46.005 24.9678C44.5271 24.9678 43.7291 24.6392 43.2814 24.1915C42.8336 23.7437 42.505 22.9458 42.505 21.4678Z" fill="#00CCB5"/>
<rect x="2" y="2.72681" width="86" height="86" rx="22" stroke="#00CCB5" stroke-width="4"/>
</svg>
